<svg xmlns="http://www.w3.org/2000/svg" xmlns:xlink="http://www.w3.org/1999/xlink" width="1024" zoomAndPan="magnify" viewBox="0 0 768 767.999994" height="1024" preserveAspectRatio="xMidYMid meet" version="1.2"><defs><clipPath id="519004c54f"><path d="M 269.367188 328 L 498.867188 328 L 498.867188 595.425781 L 269.367188 595.425781 Z M 269.367188 328 "/></clipPath><clipPath id="1968f6f96f"><path d="M 95.742188 95.742188 L 672.492188 95.742188 L 672.492188 672.492188 L 95.742188 672.492188 Z M 95.742188 95.742188 "/></clipPath></defs><g id="15207c58f3"><path style=" stroke:none;fill-rule:nonzero;fill:#100f0d;fill-opacity:1;" d="M 418.394531 273.460938 C 418.394531 277.484375 421.628906 280.75 425.605469 280.75 L 459.207031 280.75 L 459.207031 302.546875 L 425.605469 302.546875 C 423.621094 302.546875 421.820312 303.363281 420.511719 304.679688 C 419.207031 306 418.394531 307.816406 418.394531 309.832031 C 418.394531 313.855469 421.628906 317.117188 425.605469 317.117188 L 459.207031 317.117188 L 459.207031 338.917969 L 425.605469 338.917969 C 423.621094 338.917969 421.820312 339.734375 420.511719 341.046875 C 419.207031 342.367188 418.394531 344.1875 418.394531 346.203125 C 418.394531 350.222656 421.628906 353.488281 425.605469 353.488281 L 459.207031 353.488281 L 459.207031 383.390625 C 459.207031 425.226562 425.605469 459.152344 384.171875 459.152344 C 342.730469 459.152344 309.136719 425.226562 309.136719 383.390625 L 309.136719 353.488281 L 342.648438 353.488281 C 346.636719 353.488281 349.859375 350.222656 349.859375 346.203125 C 349.859375 344.1875 349.058594 342.367188 347.75 341.046875 C 346.445312 339.734375 344.640625 338.917969 342.648438 338.917969 L 309.136719 338.917969 L 309.136719 317.117188 L 342.648438 317.117188 C 346.636719 317.117188 349.859375 313.855469 349.859375 309.832031 C 349.859375 307.816406 349.058594 306 347.75 304.679688 C 346.445312 303.363281 344.640625 302.546875 342.648438 302.546875 L 309.136719 302.546875 L 309.136719 280.75 L 342.648438 280.75 C 346.636719 280.75 349.859375 277.484375 349.859375 273.460938 C 349.859375 269.441406 346.636719 266.175781 342.648438 266.175781 L 309.136719 266.175781 L 309.136719 248.269531 C 309.136719 206.421875 342.730469 172.507812 384.171875 172.507812 C 404.890625 172.507812 423.648438 180.992188 437.226562 194.695312 C 450.804688 208.40625 459.207031 227.347656 459.207031 248.269531 L 459.207031 266.175781 L 425.605469 266.175781 C 421.628906 266.175781 418.394531 269.441406 418.394531 273.460938 "/><g clip-rule="nonzero" clip-path="url(#519004c54f)"><path style=" stroke:none;fill-rule:nonzero;fill:#100f0d;fill-opacity:1;" d="M 489.222656 328.078125 C 483.828125 328.078125 479.460938 332.488281 479.460938 337.925781 L 479.460938 383.390625 C 479.460938 396.367188 476.941406 408.96875 471.96875 420.847656 C 467.164062 432.304688 460.300781 442.597656 451.550781 451.425781 C 442.808594 460.257812 432.621094 467.1875 421.273438 472.035156 C 409.511719 477.058594 397.023438 479.601562 384.164062 479.601562 C 371.3125 479.601562 358.824219 477.058594 347.074219 472.035156 C 335.71875 467.1875 325.53125 460.257812 316.789062 451.425781 C 308.039062 442.597656 301.175781 432.304688 296.378906 420.847656 C 291.398438 408.96875 288.875 396.367188 288.875 383.390625 L 288.875 337.925781 C 288.875 332.488281 284.511719 328.078125 279.117188 328.078125 C 273.734375 328.078125 269.367188 332.488281 269.367188 337.925781 L 269.367188 383.390625 C 269.367188 399.015625 272.410156 414.199219 278.40625 428.523438 C 284.1875 442.324219 292.457031 454.722656 302.992188 465.355469 C 313.523438 475.984375 325.792969 484.335938 339.472656 490.183594 C 350.65625 494.957031 362.363281 497.875 374.414062 498.890625 L 374.414062 574.667969 C 374.414062 575.023438 374.441406 575.378906 374.472656 575.726562 L 312.527344 575.726562 C 307.144531 575.726562 302.777344 580.136719 302.777344 585.582031 C 302.777344 591.015625 307.144531 595.425781 312.527344 595.425781 L 455.808594 595.425781 C 461.195312 595.425781 465.558594 591.015625 465.558594 585.582031 C 465.558594 580.136719 461.195312 575.726562 455.808594 575.726562 L 393.867188 575.726562 C 393.90625 575.378906 393.925781 575.023438 393.925781 574.667969 L 393.925781 498.890625 C 405.972656 497.875 417.691406 494.957031 428.875 490.183594 C 442.542969 484.335938 454.816406 475.984375 465.34375 465.355469 C 475.882812 454.722656 484.152344 442.324219 489.933594 428.523438 C 495.929688 414.199219 498.972656 399.015625 498.972656 383.390625 L 498.972656 337.925781 C 498.972656 332.488281 494.605469 328.078125 489.222656 328.078125 "/></g><g clip-rule="nonzero" clip-path="url(#1968f6f96f)"><path style=" stroke:none;fill-rule:nonzero;fill:#000000;fill-opacity:1;" d="M 384.117188 95.742188 C 225 95.742188 95.742188 225 95.742188 384.117188 C 95.742188 543.234375 225 672.492188 384.117188 672.492188 C 543.234375 672.492188 672.492188 543.234375 672.492188 384.117188 C 672.492188 225 543.234375 95.742188 384.117188 95.742188 Z M 384.117188 119.773438 C 530.246094 119.773438 648.460938 237.988281 648.460938 384.117188 C 648.460938 530.246094 530.246094 648.460938 384.117188 648.460938 C 237.988281 648.460938 119.773438 530.246094 119.773438 384.117188 C 119.773438 237.988281 237.988281 119.773438 384.117188 119.773438 Z M 384.117188 119.773438 "/></g></g></svg>